<?xml version="1.0" encoding="utf-8"?>
<svg viewBox="0 0 54 54" xmlns="http://www.w3.org/2000/svg">
  <path d="M 26.99 1.09 C 42.372 1.09 53.98 12.45 53.98 26.973 C 53.98 33.66 51.44 39.556 47.304 44.013 L 54.486 51.993 L 42.37 51.993 L 39.88 49.146 C 36.28 51.628 31.778 52.784 26.99 52.784 C 11.68 52.784 0 41.496 0 26.974 C 0 12.017 12.116 1.09 26.99 1.09 Z M 32.576 41.64 L 22.2 29.993 L 34.317 29.993 L 39.904 36.393 C 41.934 33.875 42.878 30.856 42.878 26.973 C 42.878 18.275 36.278 11.156 26.988 11.156 C 17.701 11.156 11.174 18.202 11.174 26.973 C 11.174 35.888 17.701 42.791 26.989 42.791 L 26.99 42.79 L 32.576 41.64 Z" />
</svg>