<?xml version="1.0" encoding="utf-8"?>
<svg viewBox="0 0 24 24" preserveAspectRatio="xMidYMid meet" xmlns="http://www.w3.org/2000/svg">
  <path d="M 21 1.097 L 12 1.097 C 11.2 1.097 10.5 1.597 10.2 2.297 L 7.2 9.597 C 7.1 9.797 7 9.997 7 10.297 L 7 12.397 C 7 13.497 7.9 14.497 9 14.497 L 15.3 14.497 L 14.3 19.197 L 14.3 19.497 C 14.3 19.897 14.5 20.297 14.7 20.597 L 14.7 20.597 C 15.3 21.197 16.2 21.097 16.8 20.497 L 22.4 14.797 C 22.8 14.397 23 13.897 23 13.397 L 23 3.097 C 23 1.997 22.1 1.097 21 1.097 L 21 1.097 Z M 20.7 13.697 L 17.2 17.297 C 17 17.497 16.7 17.297 16.8 17.097 L 17.8 12.397 L 10 12.397 C 9.4 12.397 9 11.897 9 11.397 L 9 10.497 L 9 10.397 L 11.7 3.697 C 11.9 3.397 12.3 3.097 12.7 3.097 L 20 3.097 C 20.6 3.097 21 3.597 21 4.097 L 21 12.897 C 21 13.297 20.9 13.497 20.7 13.697 L 20.7 13.697 Z" class="style-scope iron-icon" transform="matrix(-1, 0, 0, -1, 30.000002, 22.09711)"/>
  <path d="M 1 9 L 5 9 L 5 21 L 1 21 L 1 9 Z" class="style-scope iron-icon" transform="matrix(-1, 0, 0, -1, 5.999998, 30)"/>
</svg>